<svg width="1920" height="696" viewBox="0 0 1920 696" fill="none" xmlns="http://www.w3.org/2000/svg">
<g clip-path="url(#clip0_5_5029)">
<rect width="1920" height="696" fill="#ECF4FD"/>
<path d="M1771.18 74.36C1730.28 74.36 1697 41.08 1697 0.18C1697 -40.72 1730.28 -74 1771.18 -74C1812.08 -74 1845.36 -40.72 1845.36 0.18C1845.35 41.08 1812.08 74.36 1771.18 74.36ZM1771.18 -70.81C1732.03 -70.81 1700.19 -38.96 1700.19 0.18C1700.19 39.33 1732.04 71.17 1771.18 71.17C1810.32 71.17 1842.17 39.32 1842.17 0.18C1842.17 -38.96 1810.32 -70.81 1771.18 -70.81Z" fill="#128C76"/>
<path d="M1771.18 63.99C1736 63.99 1707.37 35.37 1707.37 0.179993C1707.37 -35 1735.99 -63.63 1771.18 -63.63C1806.36 -63.63 1834.99 -35.01 1834.99 0.179993C1834.98 35.37 1806.36 63.99 1771.18 63.99ZM1771.18 -60.44C1737.75 -60.44 1710.56 -33.24 1710.56 0.179993C1710.56 33.61 1737.76 60.8 1771.18 60.8C1804.6 60.8 1831.8 33.6 1831.8 0.179993C1831.8 -33.24 1804.6 -60.44 1771.18 -60.44Z" fill="#128C76"/>
<path d="M1771.18 53.62C1741.71 53.62 1717.74 29.65 1717.74 0.179993C1717.74 -29.29 1741.71 -53.26 1771.18 -53.26C1800.65 -53.26 1824.62 -29.29 1824.62 0.179993C1824.61 29.65 1800.64 53.62 1771.18 53.62ZM1771.18 -50.07C1743.47 -50.07 1720.93 -27.53 1720.93 0.179993C1720.93 27.89 1743.47 50.44 1771.18 50.44C1798.89 50.44 1821.43 27.9 1821.43 0.179993C1821.43 -27.53 1798.89 -50.07 1771.18 -50.07Z" fill="#128C76"/>
<path d="M1771.18 43.25C1747.43 43.25 1728.11 23.93 1728.11 0.179985C1728.11 -23.57 1747.43 -42.89 1771.18 -42.89C1794.93 -42.89 1814.25 -23.57 1814.25 0.179985C1814.25 23.93 1794.92 43.25 1771.18 43.25ZM1771.18 -39.7C1749.19 -39.7 1731.29 -21.81 1731.29 0.189987C1731.29 22.18 1749.18 40.08 1771.18 40.08C1793.18 40.08 1811.07 22.19 1811.07 0.189987C1811.06 -21.81 1793.17 -39.7 1771.18 -39.7Z" fill="#128C76"/>
<path d="M440.4 425.9C370.29 418.95 303.46 452.25 236.7 474.79C213.76 482.54 189.42 489.14 165.55 485.05C127.38 478.51 98.77 446.05 80.82 411.74C62.87 377.43 52.21 339.44 31.75 306.57C23.42 293.18 12.65 280.4 0 271V695.54H597.52C611.42 638.91 611.98 578.53 586.41 526.85C559.01 471.5 501.88 431.99 440.4 425.9Z" fill="#ACDBDF"/>
</g>
<defs>
<clipPath id="clip0_5_5029">
<rect width="1920" height="696" fill="white"/>
</clipPath>
</defs>
</svg>
