<svg width="872" height="696" viewBox="0 0 872 696" fill="none" xmlns="http://www.w3.org/2000/svg">
<g clip-path="url(#clip0_5_5029)">
<rect width="872" height="696" fill="#ECF4FD"/>
<path d="M200.015 425.9C168.173 418.95 137.821 452.25 107.501 474.79C97.0827 482.54 86.0282 489.14 75.1873 485.05C57.8518 478.51 44.858 446.05 36.7058 411.74C28.5535 377.43 23.712 339.44 14.4198 306.57C10.6366 293.18 5.74521 280.4 0 271V695.54H271.374C277.687 638.91 277.941 578.53 266.328 526.85C253.884 471.5 227.937 431.99 200.015 425.9Z" fill="#ACDBDF"/>
<path d="M659.351 74.36C621.113 74.36 590 41.08 590 0.18C590 -40.72 621.113 -74 659.351 -74C697.588 -74 728.701 -40.72 728.701 0.18C728.692 41.08 697.588 74.36 659.351 74.36ZM659.351 -70.81C622.749 -70.81 592.982 -38.96 592.982 0.18C592.982 39.33 622.759 71.17 659.351 71.17C695.942 71.17 725.719 39.32 725.719 0.18C725.719 -38.96 695.942 -70.81 659.351 -70.81Z" fill="#128C76"/>
<path d="M659.351 63.99C626.461 63.99 599.695 35.37 599.695 0.179993C599.695 -35 626.452 -63.63 659.351 -63.63C692.24 -63.63 719.006 -35.01 719.006 0.179993C718.997 35.37 692.24 63.99 659.351 63.99ZM659.351 -60.44C628.097 -60.44 602.677 -33.24 602.677 0.179993C602.677 33.61 628.106 60.8 659.351 60.8C690.595 60.8 716.024 33.6 716.024 0.179993C716.024 -33.24 690.595 -60.44 659.351 -60.44Z" fill="#128C76"/>
<path d="M659.35 53.62C631.799 53.62 609.39 29.65 609.39 0.179993C609.39 -29.29 631.799 -53.26 659.35 -53.26C686.902 -53.26 709.311 -29.29 709.311 0.179993C709.302 29.65 686.893 53.62 659.35 53.62ZM659.35 -50.07C633.445 -50.07 612.372 -27.53 612.372 0.179993C612.372 27.89 633.445 50.44 659.35 50.44C685.256 50.44 706.329 27.9 706.329 0.179993C706.329 -27.53 685.256 -50.07 659.35 -50.07Z" fill="#128C76"/>
<path d="M659.351 43.25C637.147 43.25 619.085 23.93 619.085 0.179985C619.085 -23.57 637.147 -42.89 659.351 -42.89C681.554 -42.89 699.617 -23.57 699.617 0.179985C699.617 23.93 681.545 43.25 659.351 43.25ZM659.351 -39.7C638.792 -39.7 622.058 -21.81 622.058 0.189987C622.058 22.18 638.783 40.08 659.351 40.08C679.918 40.08 696.644 22.19 696.644 0.189987C696.634 -21.81 679.909 -39.7 659.351 -39.7Z" fill="#128C76"/>
</g>
<defs>
<clipPath id="clip0_5_5029">
<rect width="872" height="696" fill="white"/>
</clipPath>
</defs>
</svg>
